<svg id="Capa_3" data-name="Capa 3" xmlns="http://www.w3.org/2000/svg" viewBox="0 0 186.61 200.08"><path d="M406.39,600V400.14s23.77-.81,112.2.9c5.21.11,17.41.31,30.31,7.2A61.88,61.88,0,0,1,572,430.15a64.18,64.18,0,0,1,9.3,31.2c.36,6.39-.3,21.6-5.4,31.2a64.63,64.63,0,0,1-17.7,21.3c-11.38,8.43-26.7,12-26.7,12l10.2,12.9,29.1,35.41L593,600H553.4l-22.2-27.6-41.11-49.21v-24.9a328.58,328.58,0,0,0,34.21-.9c6.9-.6,13.8-5.1,17.7-10.2,7.81-10.22,7.48-21.08,7.5-24.3,0-4.31-.22-12.81-6.6-20.4-4.87-5.79-9.7-8.6-12.6-9.6a38.38,38.38,0,0,0-12.91-2.1c-37,0-81.3,0-81.3,0l.6,169.21Z" transform="translate(-406.39 -399.95)"/><polygon points="41.7 39.49 41.7 200.01 133.05 200.07 109.21 168.8 73.2 168.8 73.2 39.49 41.7 39.49"/></svg>