<svg id="Capa_2" data-name="Capa 2" xmlns="http://www.w3.org/2000/svg" viewBox="0 0 622 666.87"><defs><style>.cls-1{fill:#fff;}</style></defs><path class="cls-1" d="M221,815V149s79.24-2.71,374,3c17.35.34,58,1,101,24,43.21,23.09,67.22,57.16,77,73,27.06,43.82,29.92,85.13,31,104,1.22,21.31-1,72-18,104-19.12,36-43.23,59.33-59,71-37.93,28.08-89,40-89,40l34,43,97,118,74,86H711l-74-92L500,559V476s57.78,1.89,114-3c23-2,46-17,59-34,26-34.05,24.94-70.25,25-81,.09-14.36-.73-42.69-22-68-16.22-19.31-32.33-28.64-42-32a128.58,128.58,0,0,0-43-7c-123.21-.12-271,0-271,0l2,564Z" transform="translate(-221 -148.36)"/><polygon class="cls-1" points="139 131.64 139 666.64 443.48 666.87 364 562.64 244 562.64 244 131.64 139 131.64"/></svg>